<svg xmlns="http://www.w3.org/2000/svg" version="1.1" xmlns:xlink="http://www.w3.org/1999/xlink" xmlns:svgjs="http://svgjs.dev/svgjs" width="1500" height="1660" viewBox="0 0 1500 1660"><g transform="matrix(1,0,0,1,0.04985247229080869,0.0002047529604851661)"><svg viewBox="0 0 253 280" data-background-color="#c9efc7" preserveAspectRatio="xMidYMid meet" height="1660" width="1500" xmlns="http://www.w3.org/2000/svg" xmlns:xlink="http://www.w3.org/1999/xlink"><g id="tight-bounds" transform="matrix(1,0,0,1,-0.008408450326385264,0.000034536643966021074)"><svg viewBox="0 0 253.01681690065274 280" height="280" width="253.01681690065274"><g><svg viewBox="0 0 278.2696 307.94588657952164" height="280" width="253.01681690065274"><g><svg viewBox="0 0 278.2696 307.94588657952164" height="307.94588657952164" width="278.2696"><g id="textblocktransform"><svg viewBox="0 0 278.2696 307.94588657952164" height="307.94588657952164" width="278.2696" id="textblock"><g><svg viewBox="0 0 278.2696 278.2696" height="278.2696" width="278.2696"><g transform="matrix(1,0,0,1,89.94321971048298,91.83217639360043)"><svg viewBox="0 0 98.38316057903407 94.60524721279916" height="94.60524721279916" width="98.38316057903407"><g id="icon-0"><svg xmlns="http://www.w3.org/2000/svg" xmlns:xlink="http://www.w3.org/1999/xlink" version="1.1" x="0" y="0" viewBox="5.131 6.795 90 86.544" enable-background="new 0 0 100 100" xml:space="preserve" height="94.60524721279916" width="98.38316057903407" class="icon-xg-0" data-fill-palette-color="accent" id="xg-0"><path d="M50.132 32.775h-0.001L5.131 6.795v68.223l37.986 16.474c2.168 1.231 4.591 1.847 7.014 1.847 2.423 0 4.846-0.616 7.014-1.847l37.986-16.474V6.795L50.132 32.775zM8.55 72.774V12.678l3.319 1.935v56.642l20.596 11.891L8.55 72.774zM46.319 87.196l-31.03-17.915V16.607l33.133 19.129 0 0 0.001 52.283C47.687 87.85 46.977 87.576 46.319 87.196zM53.943 87.196c-0.657 0.379-1.367 0.653-2.102 0.823l-0.001-52.283 0.001 0 33.133-19.129v52.674L53.943 87.196zM91.712 72.774L67.797 83.146l20.596-11.891V14.614l3.319-1.935V72.774zM22.048 28.781l21.164 12.219v1.692L22.048 30.472V28.781zM22.048 37.327l21.164 12.219v1.692L22.048 39.018V37.327zM22.048 45.873l21.164 12.219v1.692L22.048 47.565V45.873zM22.048 54.419l21.164 12.219v1.692L22.048 56.111V54.419zM22.048 62.965l21.164 12.219v1.692L22.048 64.657V62.965zM57.051 40.999l21.164-12.219v1.692L57.051 42.691V40.999zM57.051 49.546l21.164-12.219v1.692L57.051 51.237V49.546zM57.051 58.092l21.164-12.219v1.692L57.051 59.783V58.092zM57.051 66.638l21.164-12.219v1.692L57.051 68.33V66.638zM57.051 75.184l21.164-12.219v1.692L57.051 76.876V75.184z" fill="#398378" data-fill-palette-color="accent"></path></svg></g></svg></g><g id="text-0"><path d="M30.027 109.974l-26.342-8.462 1.015-3.162 19.387-0.862 0.03-0.095c-0.557-0.13-1.183-0.272-1.878-0.426-0.698-0.147-1.528-0.348-2.491-0.602-0.963-0.254-2.123-0.598-3.479-1.034v0l-9.607-3.086 1.14-3.55 26.343 8.463-1.028 3.199-18.914 0.983-0.039 0.123c0.635 0.148 1.328 0.308 2.08 0.481 0.746 0.17 1.682 0.408 2.809 0.714 1.127 0.306 2.58 0.745 4.36 1.317v0l7.743 2.487z" fill="#528265" data-fill-palette-color="primary"></path><path d="M38.094 89.33l-21.575-11.305-2.067 3.946-2.933-1.537 6.077-11.598 2.933 1.537-2.063 3.936 21.575 11.305z" fill="#528265" data-fill-palette-color="primary"></path><path d="M48.733 72.615v0c-0.278 0.388-0.623 0.793-1.033 1.217-0.419 0.425-0.926 0.784-1.519 1.076-0.588 0.296-1.279 0.457-2.072 0.482-0.803 0.027-1.723-0.152-2.76-0.537-1.041-0.38-2.223-1.046-3.548-1.996v0l-15.571-11.179 2.447-3.408 16.371 11.753c1.394 1.001 2.46 1.529 3.195 1.584 0.737 0.064 1.345-0.238 1.825-0.905v0c0.487-0.678 0.582-1.357 0.285-2.035-0.287-0.679-1.128-1.52-2.522-2.521v0l-16.371-11.753 2.441-3.4 15.571 11.179c1.325 0.951 2.333 1.859 3.026 2.723 0.693 0.865 1.157 1.679 1.392 2.443 0.225 0.766 0.292 1.474 0.199 2.126-0.087 0.655-0.263 1.247-0.528 1.775-0.27 0.524-0.546 0.983-0.828 1.376z" fill="#528265" data-fill-palette-color="primary"></path><path d="M56.716 62.667l-19.377-19.751 2.371-2.325 17.56 8.26 0.071-0.07c-0.432-0.374-0.92-0.792-1.465-1.251-0.549-0.455-1.19-1.019-1.924-1.692-0.734-0.673-1.6-1.517-2.598-2.534v0l-7.067-7.204 2.662-2.611 19.376 19.751-2.399 2.354-17.197-7.934-0.093 0.091c0.493 0.427 1.032 0.891 1.618 1.393 0.581 0.498 1.299 1.144 2.154 1.94 0.855 0.796 1.937 1.861 3.245 3.195v0l5.696 5.805z" fill="#528265" data-fill-palette-color="primary"></path><path d="M71.351 49.614l-15.683-22.794 3.456-2.378 6.565 9.542 4.096-2.818-6.566-9.542 3.457-2.378 15.683 22.794-3.456 2.378-7.242-10.524-4.095 2.817 7.241 10.525z" fill="#528265" data-fill-palette-color="primary"></path><path d="M84.486 34.738v0c-0.247-0.536-0.446-1.05-0.6-1.541-0.144-0.488-0.274-1.023-0.388-1.605v0l2.963-1.363 0.515 1.12c0.623 1.355 1.306 2.299 2.047 2.834 0.745 0.525 1.542 0.593 2.392 0.202v0c1.475-0.679 1.882-1.737 1.22-3.177v0c-0.258-0.56-0.649-1.095-1.176-1.604-0.523-0.503-1.341-1.043-2.452-1.619v0l-6.268-3.157c-1.108-0.585-2.065-1.239-2.872-1.962-0.801-0.726-1.456-1.643-1.966-2.751v0c-0.767-1.668-0.877-3.27-0.328-4.806 0.545-1.542 1.733-2.734 3.564-3.577v0c1.481-0.681 2.767-0.948 3.856-0.8 1.093 0.139 1.999 0.54 2.719 1.201 0.723 0.652 1.281 1.406 1.675 2.261v0c0.247 0.536 0.433 1.052 0.559 1.548 0.132 0.494 0.27 1.039 0.414 1.638v0l-2.945 1.354-0.556-1.21c-0.609-1.325-1.288-2.245-2.037-2.762-0.751-0.523-1.521-0.603-2.31-0.24v0c-0.717 0.33-1.167 0.778-1.351 1.344-0.184 0.566-0.124 1.181 0.18 1.843v0c0.263 0.572 0.619 1.036 1.067 1.392 0.451 0.362 0.972 0.702 1.564 1.02v0l7.01 3.582c1.298 0.68 2.378 1.394 3.24 2.143 0.862 0.749 1.559 1.701 2.091 2.858v0c0.8 1.74 0.879 3.371 0.237 4.892-0.64 1.527-1.881 2.715-3.724 3.562v0c-1.511 0.695-2.815 0.985-3.912 0.869-1.093-0.125-2.001-0.513-2.724-1.165-0.723-0.652-1.291-1.427-1.704-2.324z" fill="#528265" data-fill-palette-color="primary"></path><path d="M111.846 18.816l-11.582 3.395-0.926-3.158 11.582-3.395z" fill="#528265" data-fill-palette-color="primary"></path><path d="M127.239 28.001v0c-0.664 0.084-1.403 0.081-2.216-0.011-0.813-0.091-1.61-0.398-2.391-0.92-0.788-0.522-1.482-1.366-2.084-2.532-0.609-1.172-1.044-2.787-1.304-4.846v0l-1.23-9.725c-0.208-1.644-0.227-3.034-0.057-4.172 0.164-1.136 0.453-2.068 0.869-2.795 0.417-0.721 0.907-1.281 1.471-1.679 0.563-0.405 1.141-0.699 1.733-0.881 0.592-0.175 1.145-0.295 1.658-0.36v0c1.414-0.179 2.568-0.058 3.463 0.364 0.888 0.422 1.569 1.051 2.042 1.886 0.467 0.836 0.767 1.787 0.902 2.852v0c0.074 0.585 0.097 1.134 0.068 1.645-0.022 0.511-0.055 1.073-0.097 1.686v0l-3.216 0.406-0.167-1.321c-0.38-3.005-1.277-4.418-2.691-4.24v0c-0.763 0.096-1.303 0.499-1.621 1.208-0.318 0.708-0.366 1.94-0.144 3.696v0l1.566 12.378c0.215 1.703 0.563 2.838 1.042 3.406 0.48 0.574 1.144 0.807 1.993 0.7v0c0.585-0.074 1.04-0.385 1.365-0.935 0.325-0.549 0.417-1.376 0.277-2.48v0l-0.329-2.604 3.639-0.46 0.322 2.545c0.278 2.196-0.003 3.885-0.842 5.067-0.839 1.182-2.179 1.889-4.021 2.122z" fill="#528265" data-fill-palette-color="primary"></path><path d="M143.194 27.451v0c-0.716-0.016-1.432-0.134-2.15-0.356-0.718-0.228-1.374-0.673-1.969-1.336-0.595-0.663-1.064-1.654-1.407-2.974-0.336-1.32-0.479-3.08-0.431-5.28v0l0.077-3.499c0.048-2.167 0.274-3.882 0.68-5.146 0.406-1.257 0.923-2.191 1.553-2.8 0.63-0.603 1.308-0.992 2.035-1.169 0.726-0.17 1.434-0.247 2.123-0.232v0c0.669 0.015 1.36 0.116 2.072 0.305 0.705 0.194 1.352 0.603 1.942 1.226 0.596 0.623 1.069 1.578 1.418 2.865 0.35 1.287 0.5 3.027 0.453 5.221v0l-0.077 3.498c-0.048 2.173-0.281 3.905-0.701 5.196-0.419 1.29-0.941 2.26-1.566 2.909-0.631 0.656-1.303 1.085-2.017 1.288-0.714 0.203-1.392 0.298-2.035 0.284zM143.291 24.41v0c0.736 0.016 1.255-0.377 1.557-1.179 0.303-0.802 0.477-2.247 0.523-4.334v0l0.122-5.547c0.046-2.101-0.064-3.562-0.331-4.382-0.267-0.828-0.768-1.25-1.504-1.267v0c-0.769-0.017-1.318 0.382-1.647 1.197-0.329 0.808-0.517 2.263-0.564 4.364v0l-0.121 5.546c-0.046 2.087 0.078 3.539 0.371 4.354 0.294 0.815 0.825 1.231 1.594 1.248z" fill="#528265" data-fill-palette-color="primary"></path><path d="M155.604 23.009l2.949-16.823 4.035 0.707-2.833 16.158c-0.169 0.966-0.137 1.665 0.097 2.096 0.227 0.43 0.628 0.696 1.203 0.796v0c0.855 0.15 1.672-0.151 2.449-0.902v0l3.06-17.451 4.034 0.707-3.851 21.965-3.075-0.539 0.009-2.411-0.019-0.003c-0.802 0.889-1.63 1.447-2.484 1.674-0.861 0.226-1.696 0.268-2.505 0.126v0c-1.273-0.223-2.183-0.847-2.73-1.872-0.542-1.017-0.655-2.426-0.339-4.228z" fill="#528265" data-fill-palette-color="primary"></path><path d="M172.507 32.088l7.132-21.128 2.845 0.96-0.395 2.259c0.69-0.656 1.385-1.089 2.086-1.3 0.692-0.207 1.331-0.212 1.915-0.015v0c2.179 0.736 2.807 2.472 1.882 5.211v0c-0.119 0.352-0.324 0.793-0.615 1.324-0.291 0.531-0.582 0.989-0.873 1.374v0l-2.703-0.913 0.556-1.648c0.286-0.848 0.351-1.466 0.196-1.855-0.149-0.386-0.416-0.644-0.799-0.773v0c-0.477-0.161-1.004 0.084-1.581 0.736v0l-5.765 17.078z" fill="#528265" data-fill-palette-color="primary"></path><path d="M187.39 32.694v0c0.218-0.44 0.468-0.841 0.751-1.203 0.283-0.363 0.524-0.647 0.721-0.853v0l2.584 1.279c-0.717 1.449-1.037 2.552-0.96 3.308 0.077 0.756 0.454 1.301 1.131 1.636v0c0.481 0.238 0.932 0.276 1.352 0.114 0.417-0.156 0.727-0.439 0.93-0.848v0c0.209-0.422 0.296-0.889 0.262-1.402-0.029-0.51-0.124-1.101-0.288-1.773v0l-1-4.433c-0.26-1.223-0.428-2.453-0.504-3.688-0.07-1.233 0.183-2.431 0.759-3.596v0c0.512-1.034 1.162-1.773 1.952-2.218 0.793-0.451 1.641-0.656 2.545-0.615 0.904 0.041 1.793 0.277 2.666 0.71v0c1.443 0.714 2.425 1.629 2.946 2.745 0.52 1.115 0.438 2.365-0.248 3.749v0c-0.226 0.457-0.49 0.885-0.79 1.284-0.301 0.398-0.566 0.733-0.797 1.003v0l-2.539-1.257c0.632-1.322 0.961-2.375 0.988-3.161 0.024-0.78-0.297-1.334-0.963-1.663v0c-0.564-0.279-1.039-0.3-1.423-0.061-0.387 0.245-0.687 0.581-0.899 1.009v0c-0.229 0.463-0.321 0.939-0.274 1.428 0.055 0.486 0.151 1.055 0.287 1.706v0l1.158 4.944c0.112 0.492 0.219 1.096 0.323 1.813 0.098 0.714 0.119 1.479 0.063 2.294-0.059 0.806-0.283 1.602-0.671 2.386v0c-0.694 1.402-1.692 2.313-2.994 2.733-1.303 0.42-2.774 0.225-4.413-0.587v0c-0.885-0.438-1.628-0.976-2.23-1.614-0.601-0.638-0.959-1.388-1.072-2.25-0.11-0.853 0.105-1.826 0.647-2.919z" fill="#528265" data-fill-palette-color="primary"></path><path d="M204.23 36.668v0l2.363-3.479c0.961-1.415 1.877-2.503 2.747-3.265 0.874-0.768 1.697-1.295 2.468-1.581 0.776-0.282 1.494-0.395 2.154-0.34 0.659 0.055 1.253 0.202 1.781 0.44 0.533 0.242 0.994 0.495 1.383 0.76v0c0.817 0.555 1.453 1.235 1.907 2.04 0.456 0.815 0.607 1.778 0.452 2.891-0.153 1.122-0.733 2.423-1.739 3.904v0c-0.503 0.74-1.058 1.469-1.665 2.186-0.602 0.721-1.173 1.331-1.712 1.83v0l-6.036-4.101-1.274 1.875c-1.091 1.606-1.728 2.833-1.91 3.678-0.173 0.844 0.125 1.527 0.892 2.049v0c0.422 0.287 0.926 0.365 1.512 0.234 0.58-0.135 1.2-0.687 1.859-1.658v0l0.548-0.806 2.788 1.894-0.57 0.839c-1.192 1.754-2.476 2.749-3.853 2.983-1.373 0.229-2.852-0.195-4.437-1.271v0c-1.59-1.08-2.396-2.513-2.417-4.298-0.023-1.794 0.897-4.062 2.759-6.804zM209.88 35.675l3.323 2.257c0.151-0.186 0.367-0.476 0.65-0.868 0.274-0.391 0.492-0.707 0.656-0.949v0c0.831-1.223 1.296-2.185 1.396-2.886 0.104-0.707-0.125-1.255-0.686-1.644v0c-0.598-0.406-1.244-0.404-1.939 0.005-0.695 0.409-1.582 1.409-2.662 2.999v0z" fill="#528265" data-fill-palette-color="primary"></path><path d="M229.265 54.381l-8.873-8.182 2.23-2.419 8.874 8.181z" fill="#528265" data-fill-palette-color="primary"></path><path d="M225.563 67.159l21.795-17.044 2.584 3.305-9.123 7.135 3.062 3.915 9.124-7.135 2.584 3.305-21.795 17.045-2.585-3.305 10.064-7.87-3.062-3.916-10.064 7.87z" fill="#528265" data-fill-palette-color="primary"></path><path d="M241.361 80.446l15.024-8.126 1.948 3.603-14.429 7.804c-0.863 0.467-1.391 0.926-1.583 1.377-0.196 0.445-0.156 0.924 0.121 1.437v0c0.413 0.764 1.156 1.217 2.228 1.361v0l15.584-8.428 1.948 3.602-19.614 10.61-1.485-2.746 1.896-1.489-0.01-0.018c-1.195-0.077-2.146-0.38-2.854-0.909-0.711-0.535-1.262-1.163-1.653-1.886v0c-0.615-1.137-0.69-2.238-0.226-3.303 0.461-1.056 1.496-2.019 3.105-2.889z" fill="#528265" data-fill-palette-color="primary"></path><path d="M244.683 99.252l27.826-9.699 1.348 3.868-5.614 1.956-2.831 0.85-0.012 0.026c0.619 0.184 1.218 0.495 1.799 0.931 0.58 0.436 1.017 1.074 1.309 1.913v0c0.113 0.325 0.19 0.755 0.228 1.289 0.043 0.526-0.09 1.112-0.397 1.76-0.299 0.652-0.902 1.318-1.809 1.999-0.907 0.681-2.258 1.335-4.054 1.961v0l-6.375 2.222c-1.784 0.622-3.247 0.946-4.389 0.972-1.142 0.026-2.04-0.124-2.694-0.451-0.661-0.324-1.145-0.717-1.453-1.178-0.306-0.455-0.521-0.861-0.645-1.217v0c-0.345-0.989-0.394-1.856-0.149-2.602 0.252-0.748 0.599-1.392 1.042-1.932v0l-2.073 0.365zM262.761 97.289l-12.186 4.247c-0.327 0.311-0.595 0.671-0.803 1.08-0.202 0.407-0.213 0.868-0.034 1.381v0c0.131 0.376 0.347 0.672 0.647 0.891 0.309 0.222 0.772 0.321 1.388 0.295 0.61-0.023 1.437-0.217 2.482-0.581v0l7.463-2.602c1.045-0.364 1.814-0.727 2.306-1.088 0.488-0.353 0.782-0.708 0.881-1.065 0.106-0.36 0.093-0.731-0.04-1.113v0c-0.164-0.469-0.441-0.811-0.832-1.026-0.393-0.221-0.817-0.361-1.272-0.419z" fill="#528265" data-fill-palette-color="primary"></path><path d="M8.167 179.474l28.024-9.111 1.091 3.356-16.202 12.837 0.031 0.094c0.568-0.226 1.198-0.494 1.893-0.803 0.69-0.301 1.53-0.644 2.519-1.028 0.992-0.378 2.21-0.802 3.654-1.272v0l10.22-3.323 1.227 3.773-28.024 9.111-1.104-3.394 15.72-12.648-0.044-0.133c-0.637 0.27-1.335 0.567-2.094 0.89-0.755 0.315-1.712 0.693-2.872 1.133-1.169 0.436-2.698 0.961-4.59 1.575v0l-8.235 2.678z" fill="#528265" data-fill-palette-color="primary"></path><path d="M17.913 203.965l22.936-12.135-2.217-4.192 3.11-1.645 6.519 12.32-3.111 1.646-2.213-4.183-22.936 12.135z" fill="#528265" data-fill-palette-color="primary"></path><path d="M29.926 223.706v0c-0.295-0.408-0.586-0.897-0.874-1.466-0.289-0.56-0.482-1.189-0.578-1.888-0.101-0.695-0.029-1.45 0.217-2.265 0.24-0.811 0.73-1.679 1.468-2.604 0.742-0.92 1.817-1.888 3.225-2.904v0l16.552-11.944 2.612 3.62-17.406 12.561c-1.483 1.07-2.376 1.968-2.679 2.693-0.312 0.723-0.211 1.44 0.301 2.149v0c0.52 0.72 1.172 1.046 1.957 0.979 0.783-0.059 1.917-0.623 3.4-1.693v0l17.406-12.561 2.606 3.612-16.551 11.944c-1.408 1.016-2.668 1.729-3.779 2.138-1.111 0.409-2.089 0.6-2.933 0.572-0.851-0.024-1.59-0.193-2.219-0.508-0.629-0.306-1.164-0.684-1.603-1.135-0.445-0.447-0.819-0.88-1.122-1.3z" fill="#528265" data-fill-palette-color="primary"></path><path d="M40.677 236.071l20.574-21.097 2.527 2.465-8.375 18.897 0.071 0.07c0.397-0.464 0.831-0.995 1.302-1.591 0.471-0.587 1.055-1.281 1.752-2.082 0.702-0.796 1.584-1.738 2.643-2.825v0l7.504-7.694 2.84 2.77-20.574 21.097-2.555-2.492 8.036-18.507-0.1-0.097c-0.439 0.535-0.919 1.122-1.44 1.761-0.522 0.63-1.194 1.409-2.017 2.339-0.832 0.929-1.942 2.105-3.33 3.529v0l-6.046 6.199z" fill="#528265" data-fill-palette-color="primary"></path><path d="M58.462 251.688l16.618-24.335 3.687 2.517-6.958 10.189 4.376 2.989 6.958-10.189 3.686 2.517-16.618 24.335-3.686-2.517 7.675-11.24-4.376-2.988-7.675 11.24z" fill="#528265" data-fill-palette-color="primary"></path><path d="M79.848 257.966v0c0.264-0.579 0.54-1.098 0.828-1.557 0.291-0.464 0.633-0.943 1.025-1.434v0l3.158 1.437-0.544 1.195c-0.656 1.442-0.94 2.649-0.851 3.621 0.086 0.964 0.584 1.653 1.495 2.068v0c1.575 0.717 2.712 0.306 3.412-1.233v0c0.272-0.597 0.428-1.284 0.467-2.059 0.046-0.773-0.085-1.805-0.393-3.096v0l-1.822-7.252c-0.303-1.303-0.443-2.532-0.42-3.686 0.026-1.146 0.309-2.31 0.847-3.493v0c0.81-1.78 2.026-2.988 3.649-3.626 1.62-0.632 3.407-0.503 5.362 0.387v0c1.581 0.719 2.693 1.571 3.337 2.557 0.641 0.976 0.947 1.982 0.92 3.018-0.021 1.039-0.239 2.014-0.654 2.925v0c-0.264 0.579-0.55 1.089-0.86 1.531-0.307 0.45-0.654 0.94-1.041 1.47v0l-3.14-1.429 0.585-1.285c0.642-1.412 0.915-2.602 0.817-3.571-0.104-0.972-0.575-1.649-1.413-2.031v0c-0.76-0.346-1.434-0.394-2.021-0.144-0.584 0.244-1.038 0.722-1.363 1.434v0c-0.275 0.603-0.402 1.212-0.382 1.824 0.028 0.61 0.116 1.265 0.263 1.966v0l1.993 8.149c0.358 1.517 0.537 2.884 0.537 4.101-0.009 1.219-0.293 2.444-0.854 3.675v0c-0.846 1.858-2.105 3.058-3.779 3.599-1.677 0.548-3.498 0.374-5.465-0.521v0c-1.611-0.733-2.75-1.583-3.416-2.549-0.667-0.966-0.99-1.969-0.969-3.008 0.03-1.042 0.261-2.037 0.692-2.984z" fill="#528265" data-fill-palette-color="primary"></path><path d="M112.665 263.722l-12.346-3.58 0.974-3.361 12.347 3.58z" fill="#528265" data-fill-palette-color="primary"></path><path d="M124.774 277.6v0c-0.704-0.087-1.464-0.285-2.281-0.594-0.81-0.307-1.553-0.834-2.229-1.578-0.676-0.745-1.169-1.801-1.48-3.169-0.318-1.368-0.341-3.148-0.07-5.338v0l1.284-10.36c0.218-1.756 0.56-3.2 1.028-4.331 0.474-1.13 1.017-2.011 1.63-2.643 0.62-0.638 1.274-1.091 1.961-1.36 0.688-0.269 1.361-0.419 2.02-0.451 0.658-0.025 1.259-0.004 1.805 0.064v0c1.513 0.188 2.672 0.615 3.478 1.282 0.812 0.668 1.351 1.496 1.615 2.485 0.265 0.988 0.327 2.048 0.187 3.179v0c-0.078 0.631-0.199 1.204-0.363 1.718-0.158 0.521-0.343 1.093-0.553 1.714v0l-3.424-0.424 0.174-1.401c0.398-3.21-0.156-4.908-1.663-5.095v0c-0.809-0.1-1.471 0.175-1.985 0.826-0.515 0.651-0.888 1.91-1.12 3.778v0l-1.635 13.192c-0.224 1.809-0.164 3.072 0.182 3.789 0.345 0.717 0.968 1.132 1.869 1.244v0c0.631 0.078 1.184-0.124 1.658-0.606 0.48-0.481 0.793-1.308 0.939-2.479v0l0.344-2.782 3.888 0.482-0.337 2.713c-0.289 2.335-1.024 4.004-2.203 5.006-1.179 1.003-2.753 1.382-4.719 1.139z" fill="#528265" data-fill-palette-color="primary"></path><path d="M144.003 278.267v0c-0.762 0.018-1.53-0.077-2.304-0.284-0.774-0.207-1.494-0.648-2.159-1.322-0.665-0.674-1.21-1.705-1.633-3.094-0.424-1.389-0.663-3.256-0.718-5.602v0l-0.087-3.717c-0.054-2.313 0.105-4.149 0.478-5.511 0.366-1.361 0.869-2.381 1.51-3.058 0.64-0.678 1.343-1.125 2.106-1.342 0.771-0.217 1.524-0.334 2.26-0.352v0c0.709-0.017 1.447 0.059 2.213 0.227 0.76 0.174 1.472 0.579 2.136 1.213 0.658 0.634 1.205 1.629 1.641 2.985 0.429 1.349 0.671 3.193 0.726 5.532v0l0.087 3.717c0.054 2.313-0.108 4.166-0.486 5.561-0.385 1.395-0.897 2.454-1.537 3.178-0.639 0.724-1.331 1.211-2.074 1.461-0.75 0.256-1.469 0.392-2.159 0.408zM143.967 275.026v0c0.782-0.018 1.312-0.462 1.59-1.33 0.285-0.875 0.401-2.419 0.349-4.632v0l-0.138-5.924c-0.052-2.226-0.241-3.773-0.566-4.641-0.319-0.868-0.869-1.292-1.651-1.274v0c-0.822 0.019-1.388 0.47-1.699 1.353-0.311 0.882-0.44 2.437-0.388 4.663v0l0.139 5.924c0.052 2.213 0.253 3.75 0.605 4.61 0.351 0.854 0.938 1.271 1.759 1.251z" fill="#528265" data-fill-palette-color="primary"></path><path d="M157.531 271.3l-3.155-17.928 4.299-0.756 3.029 17.213c0.182 1.031 0.468 1.721 0.859 2.07 0.39 0.342 0.888 0.459 1.495 0.352v0c0.907-0.16 1.617-0.756 2.129-1.787v0l-3.273-18.594 4.299-0.757 4.118 23.402-3.28 0.577-0.87-2.421-0.01 0.002c-0.485 1.182-1.114 2.043-1.887 2.583-0.773 0.54-1.591 0.886-2.452 1.037v0c-1.364 0.24-2.503-0.054-3.416-0.883-0.92-0.827-1.548-2.197-1.885-4.11z" fill="#528265" data-fill-palette-color="primary"></path><path d="M179.661 272.014l-7.595-22.515 3.024-1.02 1.13 2.169c0.16-0.998 0.469-1.813 0.928-2.443 0.455-0.622 0.993-1.038 1.615-1.248v0c2.324-0.784 3.978 0.284 4.963 3.205v0c0.125 0.371 0.233 0.876 0.323 1.517 0.097 0.639 0.147 1.213 0.151 1.722v0l-2.883 0.973-0.588-1.743c-0.305-0.904-0.648-1.474-1.028-1.71-0.384-0.227-0.778-0.273-1.179-0.137v0c-0.509 0.172-0.796 0.72-0.862 1.644v0l6.137 18.191z" fill="#528265" data-fill-palette-color="primary"></path><path d="M192.804 261.769v0c-0.228-0.464-0.405-0.935-0.529-1.413-0.13-0.475-0.217-0.861-0.26-1.157v0l2.756-1.357c0.761 1.546 1.487 2.533 2.178 2.961 0.688 0.422 1.395 0.455 2.121 0.098v0c0.511-0.252 0.835-0.607 0.971-1.066 0.136-0.459 0.098-0.905-0.116-1.339v0c-0.222-0.452-0.56-0.829-1.011-1.131-0.455-0.308-1.017-0.611-1.689-0.909v0l-4.398-2.023c-1.206-0.574-2.353-1.231-3.442-1.973-1.086-0.736-1.934-1.722-2.543-2.96v0c-0.544-1.106-0.753-2.137-0.625-3.094 0.136-0.954 0.514-1.801 1.131-2.54 0.624-0.743 1.4-1.343 2.328-1.8v0c1.54-0.758 2.95-0.994 4.228-0.707 1.285 0.284 2.29 1.163 3.016 2.637v0c0.24 0.488 0.43 0.985 0.569 1.493 0.142 0.514 0.253 0.958 0.334 1.332v0l-2.703 1.33c-0.715-1.392-1.395-2.353-2.04-2.885-0.643-0.526-1.321-0.613-2.035-0.261v0c-0.595 0.293-0.914 0.679-0.959 1.159-0.047 0.489 0.04 0.959 0.263 1.411v0c0.243 0.494 0.587 0.878 1.033 1.153 0.446 0.275 0.987 0.563 1.622 0.864v0l4.939 2.223c0.482 0.228 1.059 0.531 1.733 0.909 0.673 0.378 1.333 0.855 1.979 1.43 0.652 0.573 1.182 1.276 1.592 2.109v0c0.738 1.499 0.861 2.934 0.369 4.306-0.489 1.378-1.604 2.496-3.347 3.354v0c-0.951 0.468-1.891 0.75-2.82 0.845-0.931 0.089-1.794-0.096-2.588-0.554-0.797-0.464-1.483-1.279-2.057-2.445z" fill="#528265" data-fill-palette-color="primary"></path><path d="M205.897 249.408v0l-2.505-3.719c-1.015-1.506-1.728-2.844-2.14-4.012-0.408-1.164-0.601-2.185-0.578-3.064 0.027-0.873 0.2-1.625 0.519-2.255 0.319-0.63 0.699-1.162 1.142-1.597 0.446-0.429 0.879-0.784 1.297-1.065v0c0.869-0.585 1.793-0.944 2.774-1.078 0.979-0.124 1.993 0.112 3.042 0.708 1.045 0.591 2.101 1.677 3.167 3.261v0c0.533 0.792 1.034 1.629 1.502 2.513 0.468 0.884 0.843 1.69 1.125 2.418v0l-6.448 4.344 1.35 2.004c1.155 1.715 2.116 2.826 2.881 3.333 0.764 0.517 1.558 0.497 2.382-0.058v0c0.445-0.3 0.718-0.767 0.818-1.402 0.104-0.629-0.195-1.463-0.895-2.502v0l-0.577-0.858 2.976-2.005 0.606 0.899c1.259 1.869 1.732 3.532 1.419 4.989-0.317 1.452-1.321 2.748-3.014 3.889v0c-1.693 1.141-3.43 1.368-5.211 0.682-1.781-0.686-3.658-2.494-5.632-5.425zM207.156 243.43l3.545-2.389c-0.128-0.225-0.329-0.554-0.603-0.984-0.274-0.431-0.498-0.775-0.672-1.034v0c-0.881-1.308-1.648-2.15-2.301-2.526-0.658-0.372-1.29-0.361-1.897 0.032v0c-0.638 0.43-0.894 1.07-0.768 1.92 0.131 0.847 0.769 2.12 1.912 3.818v0z" fill="#528265" data-fill-palette-color="primary"></path><path d="M229.285 228.011l-9.494 8.666-2.36-2.584 9.495-8.667z" fill="#528265" data-fill-palette-color="primary"></path><path d="M243.06 229.997l-23.119-18.272 2.768-3.502 9.679 7.65 3.286-4.157-9.68-7.65 2.768-3.503 23.119 18.273-2.768 3.502-10.678-8.44-3.286 4.158 10.679 8.439z" fill="#528265" data-fill-palette-color="primary"></path><path d="M251.671 208.385l-15.97-8.738 2.095-3.829 15.333 8.389c0.919 0.503 1.636 0.71 2.153 0.623 0.511-0.091 0.914-0.407 1.209-0.947v0c0.442-0.808 0.42-1.734-0.066-2.779v0l-16.563-9.062 2.095-3.829 20.845 11.405-1.598 2.922-2.434-0.833-0.005 0.008c0.62 1.117 0.899 2.147 0.838 3.088-0.062 0.941-0.302 1.795-0.722 2.563v0c-0.665 1.215-1.606 1.92-2.824 2.115-1.221 0.201-2.683-0.165-4.386-1.096z" fill="#528265" data-fill-palette-color="primary"></path><path d="M266.072 191.446l-29.584-10.484 1.458-4.114 5.969 2.115 2.915 1.181 0.026-0.012c-0.386-0.559-0.676-1.217-0.872-1.976-0.191-0.75-0.13-1.568 0.185-2.455v0c0.124-0.35 0.345-0.757 0.664-1.22 0.321-0.47 0.822-0.872 1.504-1.208 0.688-0.333 1.637-0.482 2.848-0.446 1.203 0.039 2.76 0.398 4.671 1.075v0l6.775 2.401c1.899 0.673 3.33 1.377 4.293 2.112 0.969 0.737 1.617 1.459 1.944 2.166 0.33 0.715 0.469 1.365 0.416 1.951-0.044 0.582-0.134 1.063-0.269 1.444v0c-0.374 1.056-0.911 1.808-1.612 2.256-0.709 0.452-1.425 0.757-2.149 0.915v0l1.957 1.084zM249.744 181.029l12.96 4.593c0.477-0.035 0.935-0.157 1.375-0.368 0.444-0.201 0.762-0.574 0.955-1.117v0c0.142-0.4 0.161-0.79 0.057-1.172-0.108-0.39-0.428-0.777-0.96-1.162-0.523-0.389-1.337-0.78-2.443-1.172v0l-7.937-2.813c-1.118-0.396-1.999-0.61-2.642-0.641-0.637-0.029-1.119 0.071-1.446 0.3-0.327 0.229-0.563 0.546-0.706 0.952v0c-0.177 0.5-0.174 0.968 0.008 1.406 0.18 0.444 0.44 0.842 0.779 1.194z" fill="#528265" data-fill-palette-color="primary"></path><path d="M3.381 141.113c0-6.217 5.04-11.257 11.257-11.257 6.217 0 11.257 5.04 11.256 11.257 0 6.217-5.04 11.257-11.256 11.256-6.217 0-11.257-5.04-11.257-11.256z" fill="#528265" data-fill-palette-color="primary"></path><path d="M252.375 141.113c0-6.217 5.04-11.257 11.257-11.257 6.217 0 11.257 5.04 11.257 11.257 0 6.217-5.04 11.257-11.257 11.256-6.217 0-11.257-5.04-11.257-11.256z" fill="#528265" data-fill-palette-color="primary"></path></g><g id="text-1"></g></svg></g><g transform="matrix(1,0,0,1,53.1494936,297.77986000000004)"><svg viewBox="0 0 171.97061280000003 10.166026579521608" height="10.166026579521608" width="171.97061280000003"><g transform="matrix(1,0,0,1,0,0)"><svg width="171.97061280000003" viewBox="2.75 -34.4 767.05 45.349999999999994" height="10.166026579521608" data-palette-color="#3c3c3c"><path d="M17.3 0.75Q10.5 0.75 6.63-3.35 2.75-7.45 2.75-14.75 2.75-22.05 7.2-26.53 11.65-31 19.05-31L19.05-31Q22.85-31 26.9-29.5L26.9-29.5 25.3-24.25 19.2-27.55Q12.8-27.55 10.3-24.85 7.8-22.15 7.8-15.78 7.8-9.4 10.43-5.98 13.05-2.55 17.25-2.55 21.45-2.55 25.55-5.95L25.55-5.95 27.15-1.6Q22.65 0.75 17.3 0.75L17.3 0.75ZM42.37 0.75Q37.85 0.75 35-2.25 32.15-5.25 32.15-10.53 32.15-15.8 35.05-19.25 37.95-22.7 42.12-22.7 46.3-22.7 48.4-20.65 50.5-18.6 50.5-14.9L50.5-14.9Q50.5-13.55 50.25-11.65L50.25-11.65 36.75-11.2Q36.75-6.95 38.22-4.63 39.7-2.3 42.4-2.3L42.4-2.3Q45.95-2.3 48.95-4.85L48.95-4.85 50.3-1.15Q46.9 0.75 42.37 0.75ZM36.85-13.8L36.85-13.8 45.95-14.2Q45.9-17.25 44.95-18.45 44-19.65 41.85-19.65 39.7-19.65 38.5-19.2L38.5-19.2Q37.25-17.85 36.85-13.8ZM61.1 0L56.3 0 57-9.9 57-16.95 56.25-22.1 61.1-22.6 61.1-20.05Q65.15-22.7 69.25-22.7L69.25-22.7Q71.8-22.7 73.15-20.93 74.5-19.15 74.5-15.8L74.5-15.8 74.5 0 69.59 0.25 70.3-10.5 70.3-15.85Q70.3-17.7 69.7-18.48 69.09-19.25 67.7-19.25L67.7-19.25Q64.65-19.25 61.1-17.4L61.1-17.4 61.1 0ZM83.94-19.3L79.64-19.3 79.49-21.25 83.99-22.7 85.64-28.4 87.79-28.4 88.09-22.7 94.39-22.7 94.24-20.05 87.94-19.6 87.94-7.15Q87.94-4.5 88.47-3.48 88.99-2.45 90.57-2.45 92.14-2.45 93.94-2.95L93.94-2.95 93.49-0.1Q91.79 0.75 89.04 0.75 86.29 0.75 84.97-0.75 83.64-2.25 83.64-5.9L83.64-5.9Q83.64-7.15 83.94-19.3L83.94-19.3ZM108.37 0.75Q103.84 0.75 100.99-2.25 98.14-5.25 98.14-10.53 98.14-15.8 101.04-19.25 103.94-22.7 108.12-22.7 112.29-22.7 114.39-20.65 116.49-18.6 116.49-14.9L116.49-14.9Q116.49-13.55 116.24-11.65L116.24-11.65 102.74-11.2Q102.74-6.95 104.22-4.63 105.69-2.3 108.39-2.3L108.39-2.3Q111.94-2.3 114.94-4.85L114.94-4.85 116.29-1.15Q112.89 0.75 108.37 0.75ZM102.84-13.8L102.84-13.8 111.94-14.2Q111.89-17.25 110.94-18.45 109.99-19.65 107.84-19.65 105.69-19.65 104.49-19.2L104.49-19.2Q103.24-17.85 102.84-13.8ZM127.39 0L122.29 0 122.99-9.9 122.99-16.9 122.24-22.05 127.29-22.55 127.09-18.8Q128.84-20.9 130.19-21.8 131.54-22.7 133.01-22.7 134.49-22.7 135.94-22.05L135.94-22.05 134.59-17.75 130.09-19.1Q128.24-17.45 126.84-14.9L126.84-14.9 126.84-9.85 127.39 0ZM151.28-18.55L146.83-18.55 146.68-20.5 151.28-21.95 151.28-22.85Q151.28-28.2 153.78-31.3 156.28-34.4 160.58-34.4L160.58-34.4Q162.78-34.4 164.78-33.65L164.78-33.65 163.58-29.75 159.28-31.4Q157.13-31 156.26-29.28 155.38-27.55 155.38-23.7L155.38-23.7 155.38-21.95 161.58-21.95 161.43-19.3 155.38-18.85 155.38-9.85 155.93 0 150.58 0 151.28-9.9 151.28-18.55ZM174.1 0.75Q169.43 0.75 166.85-2.2 164.28-5.15 164.28-10.63 164.28-16.1 167.03-19.4 169.78-22.7 174.46-22.7 179.13-22.7 181.71-19.78 184.28-16.85 184.28-11.38 184.28-5.9 181.53-2.58 178.78 0.75 174.1 0.75ZM174.83-2.3L174.83-2.3Q176.33-2.3 178.03-2.8L178.03-2.8Q179.68-5.15 179.68-10.23 179.68-15.3 178.21-17.48 176.73-19.65 173.63-19.65L173.63-19.65Q172.48-19.65 170.53-19.15L170.53-19.15Q168.88-16.85 168.88-11.75 168.88-6.65 170.31-4.48 171.73-2.3 174.83-2.3ZM195.18 0L190.08 0 190.78-9.9 190.78-16.9 190.03-22.05 195.08-22.55 194.88-18.8Q196.63-20.9 197.98-21.8 199.33-22.7 200.8-22.7 202.28-22.7 203.73-22.05L203.73-22.05 202.38-17.75 197.88-19.1Q196.03-17.45 194.63-14.9L194.63-14.9 194.63-9.85 195.18 0ZM215.97-0.45L215.97-0.45 217.32-4.8Q220.87-2.3 223.27-2.3 225.67-2.3 227.32-3.45L227.32-3.45Q227.42-3.75 227.42-4.98 227.42-6.2 226.5-7.08 225.57-7.95 222.27-9.65 218.97-11.35 217.8-12.78 216.62-14.2 216.62-16.2L216.62-16.2Q216.62-19 219.1-20.85 221.57-22.7 224.9-22.7 228.22-22.7 230.52-21.7L230.52-21.7 229.32-17.8Q226.17-19.65 224.05-19.65 221.92-19.65 220.22-18.65L220.22-18.65Q220.22-16.9 221.15-15.85 222.07-14.8 225.22-13.18 228.37-11.55 229.8-10 231.22-8.45 231.22-6.45L231.22-6.45Q231.22-3.4 228.6-1.33 225.97 0.75 222.45 0.75 218.92 0.75 215.97-0.45ZM239.17-19.3L234.87-19.3 234.72-21.25 239.22-22.7 240.87-28.4 243.02-28.4 243.32-22.7 249.62-22.7 249.47-20.05 243.17-19.6 243.17-7.15Q243.17-4.5 243.69-3.48 244.22-2.45 245.79-2.45 247.37-2.45 249.17-2.95L249.17-2.95 248.72-0.1Q247.02 0.75 244.27 0.75 241.52 0.75 240.19-0.75 238.87-2.25 238.87-5.9L238.87-5.9Q238.87-7.15 239.17-19.3L239.17-19.3ZM254.62-6.15L254.62-6.15 254.62-21.85 259.52-22.1 258.82-11.35 258.82-6.1Q258.82-4.25 259.42-3.48 260.02-2.7 261.42-2.7L261.42-2.7Q264.42-2.7 268.02-4.55L268.02-4.55 267.42-21.85 272.22-22.1 272.22-5.05 272.97 0.1 268.02 0.6 268.02-1.9Q263.97 0.75 259.87 0.75L259.87 0.75Q257.32 0.75 255.97-1.03 254.62-2.8 254.62-6.15ZM292.92 0.75L292.72-1.75Q289.52 0.75 286.04 0.75 282.57 0.75 280.52-2.05 278.47-4.85 278.47-9.65L278.47-9.65Q278.47-15.55 281.59-19.13 284.72-22.7 289.87-22.7L289.87-22.7Q291.32-22.7 292.57-22.5L292.57-22.5 292.57-28.25 291.82-33.5 297.22-34 296.67-24.1 296.67-5.6 297.57 0.05 292.92 0.75ZM287.52-2.7L287.52-2.7Q289.82-2.7 292.47-3.9L292.47-3.9 292.47-19.1Q290.82-19.65 288.97-19.65 287.12-19.65 284.97-19.15L284.97-19.15Q283.07-16.6 283.07-11.25L283.07-11.25Q283.07-2.7 287.52-2.7ZM313.39 0.75Q308.86 0.75 306.01-2.25 303.16-5.25 303.16-10.53 303.16-15.8 306.06-19.25 308.96-22.7 313.14-22.7 317.31-22.7 319.41-20.65 321.51-18.6 321.51-14.9L321.51-14.9Q321.51-13.55 321.26-11.65L321.26-11.65 307.76-11.2Q307.76-6.95 309.24-4.63 310.71-2.3 313.41-2.3L313.41-2.3Q316.96-2.3 319.96-4.85L319.96-4.85 321.31-1.15Q317.91 0.75 313.39 0.75ZM307.86-13.8L307.86-13.8 316.96-14.2Q316.91-17.25 315.96-18.45 315.01-19.65 312.86-19.65 310.71-19.65 309.51-19.2L309.51-19.2Q308.26-17.85 307.86-13.8ZM332.11 0L327.31 0 328.01-9.9 328.01-16.95 327.26-22.1 332.11-22.6 332.11-20.05Q336.16-22.7 340.26-22.7L340.26-22.7Q342.81-22.7 344.16-20.93 345.51-19.15 345.51-15.8L345.51-15.8 345.51 0 340.61 0.25 341.31-10.5 341.31-15.85Q341.31-17.7 340.71-18.48 340.11-19.25 338.71-19.25L338.71-19.25Q335.66-19.25 332.11-17.4L332.11-17.4 332.11 0ZM354.96-19.3L350.66-19.3 350.51-21.25 355.01-22.7 356.66-28.4 358.81-28.4 359.11-22.7 365.41-22.7 365.26-20.05 358.96-19.6 358.96-7.15Q358.96-4.5 359.48-3.48 360.01-2.45 361.58-2.45 363.16-2.45 364.96-2.95L364.96-2.95 364.51-0.1Q362.81 0.75 360.06 0.75 357.31 0.75 355.98-0.75 354.66-2.25 354.66-5.9L354.66-5.9Q354.66-7.15 354.96-19.3L354.96-19.3ZM368.66-0.45L368.66-0.45 370.01-4.8Q373.56-2.3 375.96-2.3 378.36-2.3 380.01-3.45L380.01-3.45Q380.11-3.75 380.11-4.98 380.11-6.2 379.18-7.08 378.26-7.95 374.96-9.65 371.66-11.35 370.48-12.78 369.31-14.2 369.31-16.2L369.31-16.2Q369.31-19 371.78-20.85 374.26-22.7 377.58-22.7 380.91-22.7 383.21-21.7L383.21-21.7 382.01-17.8Q378.86-19.65 376.73-19.65 374.61-19.65 372.91-18.65L372.91-18.65Q372.91-16.9 373.83-15.85 374.76-14.8 377.91-13.18 381.06-11.55 382.48-10 383.91-8.45 383.91-6.45L383.91-6.45Q383.91-3.4 381.28-1.33 378.66 0.75 375.13 0.75 371.61 0.75 368.66-0.45ZM405.3 0L399.95 0 400.65-9.9 400.65-28.35 399.9-33.5 405.3-34 404.75-24.2 404.75-9.85 405.3 0ZM421.07 0.75Q416.4 0.75 413.82-2.2 411.25-5.15 411.25-10.63 411.25-16.1 414-19.4 416.75-22.7 421.42-22.7 426.1-22.7 428.67-19.78 431.25-16.85 431.25-11.38 431.25-5.9 428.5-2.58 425.75 0.75 421.07 0.75ZM421.8-2.3L421.8-2.3Q423.3-2.3 425-2.8L425-2.8Q426.65-5.15 426.65-10.23 426.65-15.3 425.17-17.48 423.7-19.65 420.6-19.65L420.6-19.65Q419.45-19.65 417.5-19.15L417.5-19.15Q415.85-16.85 415.85-11.75 415.85-6.65 417.27-4.48 418.7-2.3 421.8-2.3ZM446.07 0.75Q441.4 0.75 438.82-2.2 436.25-5.15 436.25-10.63 436.25-16.1 439-19.4 441.75-22.7 446.42-22.7 451.1-22.7 453.67-19.78 456.25-16.85 456.25-11.38 456.25-5.9 453.5-2.58 450.75 0.75 446.07 0.75ZM446.8-2.3L446.8-2.3Q448.3-2.3 450-2.8L450-2.8Q451.65-5.15 451.65-10.23 451.65-15.3 450.17-17.48 448.7-19.65 445.6-19.65L445.6-19.65Q444.45-19.65 442.5-19.15L442.5-19.15Q440.85-16.85 440.85-11.75 440.85-6.65 442.27-4.48 443.7-2.3 446.8-2.3ZM467.39 0L462.04 0 462.74-9.9 462.74-28.35 461.99-33.5 467.39-34 466.84-24.2 466.84-9.85 467.39 0ZM473.49-4.1L467.74-12.3 467.74-12.65 472.69-18 474.84-21.95 480.09-21.95 480.09-21.55 472.24-12.85 477.89-4.9 482.04-0.6 482.04-0.1 475.64 0.15 473.49-4.1ZM489.54 0L484.44 0 485.14-9.9 485.14-16.9 484.39-22.05 489.54-22.55 488.99-12.75 488.99-9.85 489.54 0ZM483.74-30.15L483.74-30.15Q485.29-32.3 487.09-33.5L487.09-33.5Q489.04-32.05 490.44-30.15L490.44-30.15Q488.99-28.05 487.09-26.8L487.09-26.8Q485.14-28.05 483.74-30.15ZM501.09 0L496.29 0 496.99-9.9 496.99-16.95 496.24-22.1 501.09-22.6 501.09-20.05Q505.14-22.7 509.24-22.7L509.24-22.7Q511.79-22.7 513.14-20.93 514.49-19.15 514.49-15.8L514.49-15.8 514.49 0 509.59 0.25 510.29-10.5 510.29-15.85Q510.29-17.7 509.69-18.48 509.09-19.25 507.69-19.25L507.69-19.25Q504.64-19.25 501.09-17.4L501.09-17.4 501.09 0ZM522.13-4L522.13-4Q522.13-4.85 522.59-5.63 523.03-6.4 524.59-8.3L524.59-8.3Q521.19-10.15 521.19-14.65L521.19-14.65Q521.19-18.4 523.61-20.55 526.03-22.7 529.71-22.7 533.38-22.7 535.28-21.55L535.28-21.55 541.74-22.75 541.24-19.05 537.69-19.25Q538.63-17.55 538.63-15.3L538.63-15.3Q538.63-11.55 536.21-9.4 533.78-7.25 529.53-7.25L529.53-7.25Q527.99-7.25 526.63-7.55L526.63-7.55 525.34-4.85Q526.28-4.15 527.61-3.83 528.94-3.5 532.28-3.15L532.28-3.15 536.13-2.7Q540.74-2.1 540.74 2.2L540.74 2.2Q540.74 6.05 537.46 8.5 534.19 10.95 528.99 10.95L528.99 10.95Q525.03 10.95 522.76 9.4 520.49 7.85 520.49 5.15L520.49 5.15Q520.49 1.6 524.44-0.8L524.44-0.8Q522.13-2 522.13-4ZM524.53 4L524.53 4Q524.53 8.15 530.66 8.15 536.78 8.15 536.78 3.8L536.78 3.8Q536.78 2.6 536.49 1.75L536.49 1.75 526.19-0.1Q524.53 1.45 524.53 4ZM525.53-15.05L525.53-15.05Q525.53-10.05 529.96-10.05 534.38-10.05 534.38-15.05L534.38-15.05Q534.38-17.6 533.26-18.75 532.13-19.9 530.09-19.9 528.03-19.9 526.59-19.45L526.59-19.45Q525.53-18.2 525.53-15.05ZM558.83-18.55L554.38-18.55 554.23-20.5 558.83-21.95 558.83-22.85Q558.83-28.2 561.33-31.3 563.83-34.4 568.13-34.4L568.13-34.4Q570.33-34.4 572.33-33.65L572.33-33.65 571.13-29.75 566.83-31.4Q564.68-31 563.8-29.28 562.93-27.55 562.93-23.7L562.93-23.7 562.93-21.95 569.13-21.95 568.98-19.3 562.93-18.85 562.93-9.85 563.48 0 558.13 0 558.83-9.9 558.83-18.55ZM581.65 0.75Q576.98 0.75 574.4-2.2 571.83-5.15 571.83-10.63 571.83-16.1 574.58-19.4 577.33-22.7 582-22.7 586.68-22.7 589.25-19.78 591.83-16.85 591.83-11.38 591.83-5.9 589.08-2.58 586.33 0.75 581.65 0.75ZM582.38-2.3L582.38-2.3Q583.88-2.3 585.58-2.8L585.58-2.8Q587.23-5.15 587.23-10.23 587.23-15.3 585.75-17.48 584.28-19.65 581.18-19.65L581.18-19.65Q580.03-19.65 578.08-19.15L578.08-19.15Q576.43-16.85 576.43-11.75 576.43-6.65 577.85-4.48 579.28-2.3 582.38-2.3ZM602.72 0L597.62 0 598.32-9.9 598.32-16.9 597.57-22.05 602.62-22.55 602.42-18.8Q604.17-20.9 605.52-21.8 606.87-22.7 608.35-22.7 609.82-22.7 611.27-22.05L611.27-22.05 609.92-17.75 605.42-19.1Q603.57-17.45 602.17-14.9L602.17-14.9 602.17-9.85 602.72 0ZM633.69 0.75Q629.52 0.75 626.77-2.33 624.02-5.4 624.02-10.65 624.02-15.9 627.12-19.3 630.22-22.7 635.27-22.7L635.27-22.7Q638.82-22.7 641.12-21.55L641.12-21.55 639.77-17.25 633.57-19.7Q630.92-19.4 629.77-17.35 628.62-15.3 628.62-11.08 628.62-6.85 630.04-4.58 631.47-2.3 634.19-2.3 636.92-2.3 640.07-4.85L640.07-4.85 641.42-1.15Q637.87 0.75 633.69 0.75ZM655.24 0.75Q650.57 0.75 647.99-2.2 645.42-5.15 645.42-10.63 645.42-16.1 648.17-19.4 650.92-22.7 655.59-22.7 660.27-22.7 662.84-19.78 665.42-16.85 665.42-11.38 665.42-5.9 662.67-2.58 659.92 0.75 655.24 0.75ZM655.97-2.3L655.97-2.3Q657.47-2.3 659.17-2.8L659.17-2.8Q660.82-5.15 660.82-10.23 660.82-15.3 659.34-17.48 657.87-19.65 654.77-19.65L654.77-19.65Q653.62-19.65 651.67-19.15L651.67-19.15Q650.02-16.85 650.02-11.75 650.02-6.65 651.44-4.48 652.87-2.3 655.97-2.3ZM671.66-6.15L671.66-6.15 671.66-21.85 676.56-22.1 675.86-11.35 675.86-6.1Q675.86-4.25 676.46-3.48 677.06-2.7 678.46-2.7L678.46-2.7Q681.46-2.7 685.06-4.55L685.06-4.55 684.46-21.85 689.26-22.1 689.26-5.05 690.01 0.1 685.06 0.6 685.06-1.9Q681.01 0.75 676.91 0.75L676.91 0.75Q674.36 0.75 673.01-1.03 671.66-2.8 671.66-6.15ZM701.41 0L696.31 0 697.01-9.9 697.01-16.9 696.26-22.05 701.31-22.55 701.11-18.8Q702.86-20.9 704.21-21.8 705.56-22.7 707.04-22.7 708.51-22.7 709.96-22.05L709.96-22.05 708.61-17.75 704.11-19.1Q702.26-17.45 700.86-14.9L700.86-14.9 700.86-9.85 701.41 0ZM711.71-0.45L711.71-0.45 713.06-4.8Q716.61-2.3 719.01-2.3 721.41-2.3 723.06-3.45L723.06-3.45Q723.16-3.75 723.16-4.98 723.16-6.2 722.23-7.08 721.31-7.95 718.01-9.65 714.71-11.35 713.53-12.78 712.36-14.2 712.36-16.2L712.36-16.2Q712.36-19 714.83-20.85 717.31-22.7 720.63-22.7 723.96-22.7 726.26-21.7L726.26-21.7 725.06-17.8Q721.91-19.65 719.78-19.65 717.66-19.65 715.96-18.65L715.96-18.65Q715.96-16.9 716.88-15.85 717.81-14.8 720.96-13.18 724.11-11.55 725.53-10 726.96-8.45 726.96-6.45L726.96-6.45Q726.96-3.4 724.33-1.33 721.71 0.75 718.18 0.75 714.66 0.75 711.71-0.45ZM741.93 0.75Q737.41 0.75 734.56-2.25 731.71-5.25 731.71-10.53 731.71-15.8 734.61-19.25 737.51-22.7 741.68-22.7 745.86-22.7 747.96-20.65 750.06-18.6 750.06-14.9L750.06-14.9Q750.06-13.55 749.81-11.65L749.81-11.65 736.31-11.2Q736.31-6.95 737.78-4.63 739.26-2.3 741.96-2.3L741.96-2.3Q745.51-2.3 748.51-4.85L748.51-4.85 749.86-1.15Q746.46 0.75 741.93 0.75ZM736.41-13.8L736.41-13.8 745.51-14.2Q745.46-17.25 744.51-18.45 743.56-19.65 741.41-19.65 739.26-19.65 738.06-19.2L738.06-19.2Q736.81-17.85 736.41-13.8ZM754.55-0.45L754.55-0.45 755.9-4.8Q759.45-2.3 761.85-2.3 764.25-2.3 765.9-3.45L765.9-3.45Q766-3.75 766-4.98 766-6.2 765.08-7.08 764.15-7.95 760.85-9.65 757.55-11.35 756.38-12.78 755.2-14.2 755.2-16.2L755.2-16.2Q755.2-19 757.68-20.85 760.15-22.7 763.48-22.7 766.8-22.7 769.1-21.7L769.1-21.7 767.9-17.8Q764.75-19.65 762.63-19.65 760.5-19.65 758.8-18.65L758.8-18.65Q758.8-16.9 759.73-15.85 760.65-14.8 763.8-13.18 766.95-11.55 768.38-10 769.8-8.45 769.8-6.45L769.8-6.45Q769.8-3.4 767.18-1.33 764.55 0.75 761.03 0.75 757.5 0.75 754.55-0.45Z" opacity="1" transform="matrix(1,0,0,1,0,0)" fill="#3c3c3c" class="slogan-text-1" data-fill-palette-color="secondary" id="text-1"></path></svg></g></svg></g></svg></g></svg></g><g></g></svg></g><defs></defs></svg><rect width="253.01681690065274" height="280" fill="none" stroke="none" visibility="hidden"></rect></g></svg></g></svg>